<svg width="246" height="171" viewBox="0 0 246 171" fill="none" xmlns="http://www.w3.org/2000/svg">
<path d="M127.018 70.6827C122.119 70.6827 117.12 69.6013 112.319 67.6352C119.793 49.2518 131.869 32.7854 147.904 21.6767C157.506 34.9481 158.05 51.8569 147.311 62.6215C141.767 68.1759 134.541 70.7318 127.018 70.7318M124.742 0C114.546 0 104.103 3.98143 96.0855 11.9443C80.5942 27.231 79.9013 51.3162 94.5512 65.7673C97.0258 68.225 99.7974 70.2403 102.767 71.8132C100.837 77.6625 99.4015 83.7575 98.5106 90H106.232C107.122 84.7406 108.112 79.6286 109.696 74.6641C113.111 75.6472 116.674 76.1387 120.238 76.1387C130.483 76.1387 140.926 72.1573 148.944 64.2436C162.257 51.0705 164.88 30.3277 155.13 15.7291H144.242C127.117 27.4276 113.655 44.4839 105.638 63.8995C103.757 62.6215 101.975 61.1961 100.342 59.5248C86.6818 46.0076 85.3455 25.8547 97.7682 13.5664C103.361 8.01201 110.141 5.45603 117.169 5.45603C122.663 5.45603 128.256 7.02895 133.601 9.97815L143.005 4.71873C137.412 1.57291 131.077 0 124.692 0" fill="white"/>
<path d="M95.9307 156.636V133.47H88.3364V156.636C88.3364 166.47 95.294 170.848 103.292 171V170.727C97.7477 170.273 95.9307 163.788 95.9307 156.636Z" fill="white"/>
<path d="M119.677 156.636V133.47H112.082V156.636C112.082 163.788 110.265 170.258 104.721 170.727V171C112.719 170.848 119.677 166.485 119.677 156.636Z" fill="white"/>
<path d="M192.809 133.47H185.214V170.53H192.809V133.47Z" fill="white"/>
<path d="M7.59432 134.015H9.02311C14.4742 134.015 19.9409 136.621 19.9409 144.121C19.9409 151.621 14.4742 154.5 9.02311 154.5V154.773C14.6451 154.773 19.0557 154.515 22.1462 153.091C25.7803 151.409 27.5508 148.394 27.5508 144.121C27.5508 139.848 25.7958 136.833 22.1462 135.152C19.0557 133.727 14.6451 133.47 9.02311 133.47H0V170.53H7.59432V134.015Z" fill="white"/>
<path d="M66.5163 135C63.2705 133.697 58.6424 133.455 52.7254 133.455H43.7023V170.515H51.2966V134.015H52.7254C58.4561 134.015 64.2178 136.348 64.2178 143.182C64.2178 148.121 61.2205 150.848 57.3845 151.985C56.0644 152.379 54.6356 152.576 53.2068 152.621L66.5163 170.515H75.058L61.6708 152.5C63.5345 152.273 65.1652 151.909 66.5318 151.364C70.3523 149.818 72.2159 147.076 72.2159 143.182C72.2159 139.288 70.3678 136.53 66.5318 135" fill="white"/>
<path d="M246 152C246 141.515 237.288 133 226.525 133C215.763 133 207.05 141.5 207.05 152C207.05 162.5 215.39 170.636 225.811 171V170.727C219.847 170.121 215.126 161.955 215.126 152.015C215.126 142.076 220.235 133.576 226.525 133.576C232.815 133.576 237.924 141.682 237.924 152.015C237.924 162.348 233.203 170.136 227.239 170.727V171C237.66 170.636 246 162.258 246 152Z" fill="white"/>
<path d="M169.063 169.136V154.773H158.611V155.045C160.894 156.576 162.4 159.121 162.4 162.136C162.4 166.864 158.689 170.712 154.092 170.712V170.985C157.477 170.985 165.103 170.515 169.047 169.136" fill="white"/>
<path d="M141.994 152C141.994 141.667 148.299 134.394 156.437 134.394C161.36 134.394 165.833 136.879 168.504 141.348H168.783V134.394C168.783 134.394 162.23 133.091 156.437 133H155.536C142.661 133 133.933 141.5 133.933 152C133.933 162.5 142.273 170.636 152.694 171V170.727C146.73 170.121 142.009 161.955 142.009 152.015" fill="white"/>
</svg>
